# xmcd
#
# Track frame offsets:
#	150
#	19830
#	42932
#	60879
#	95298
#	108376
#	122311
#	136078
#	151650
#	167364
#
# Disc length: 2473 seconds
#
# Revision: 0
# Processed by: cddbd v1.5PL3 Copyright (c) Steve Scherf et al.
# Submitted via: EasyCDDAExtractor 5.0.2.1
#
DISCID=6409a70a
DTITLE=Various Artist - It's My Time Now
DYEAR=1900
DGENRE=Blues
TTITLE0=Ike and Val Woods - Thrill Is Gone
TTITLE1=Ike and Val Woods - Don't Play Me Like That
TTITLE2=Ike and Val Woods - Rescued by your Love
TTITLE3=Ike and Val Woods - Dr. Feel Good
TTITLE4=Ike and Val Woods - It's My Time Now
TTITLE5=Ike and Val Woods - Angel So Soft
TTITLE6=Ike and Val Woods - Ike and Val Blues
TTITLE7=Ike and Val Woods - Wade in the Water
TTITLE8=Ike and Val Woods - Jump With Me Baby
TTITLE9=Ike and Val Woods - Amazing Grace
EXTD=
EXTT0=
EXTT1=
EXTT2=
EXTT3=
EXTT4=
EXTT5=
EXTT6=
EXTT7=
EXTT8=
EXTT9=
PLAYORDER=
